<?xml version="1.0" encoding="utf-8"?>
<!-- Generator: Adobe Illustrator 24.0.3, SVG Export Plug-In . SVG Version: 6.00 Build 0)  -->
<svg version="1.1" id="Layer_1" xmlns="http://www.w3.org/2000/svg" xmlns:xlink="http://www.w3.org/1999/xlink" x="0px" y="0px"
	 viewBox="0 0 166.7 141.7" style="enable-background:new 0 0 166.7 141.7;" xml:space="preserve">
<style type="text/css">
	.st0{fill:#546E7A;}
	.st1{fill:#B0BEC5;}
	.st2{fill:#37474F;}
	.st3{fill:#FFFDE7;}
	.st4{fill:#03A9F4;}
	.st5{fill:#190A0B;stroke:#FFFFFF;stroke-width:2;stroke-miterlimit:10;}
</style>
<path class="st0" d="M0,54.2h166.7V125c0,9.2-7.5,16.7-16.7,16.7H16.7C7.5,141.7,0,134.2,0,125V54.2z"/>
<path class="st1" d="M16.7,16.7H150c9.2,0,16.7,7.5,16.7,16.7v20.8H0V33.3C0,24.1,7.5,16.7,16.7,16.7C16.7,16.7,16.7,16.7,16.7,16.7
	z"/>
<path class="st1" d="M129.2,29.2H37.5L49.4,8.3c3-5.2,8.5-8.3,14.5-8.3h39c6,0,11.5,3.2,14.5,8.3L129.2,29.2z"/>
<path class="st2" d="M37.5,79.2c0,25.3,20.5,45.8,45.8,45.8c25.3,0,45.8-20.5,45.8-45.8c0,0,0,0,0,0c0-25.3-20.5-45.8-45.8-45.8
	S37.5,53.9,37.5,79.2z"/>
<path class="st3" d="M133.3,29.2H150v12.5h-16.7V29.2z"/>
<path class="st4" d="M45.8,79.2c0,20.7,16.8,37.5,37.5,37.5s37.5-16.8,37.5-37.5S104,41.7,83.3,41.7S45.8,58.5,45.8,79.2z"/>
<g>
	<path class="st5" d="M32.1,95.8h18.1c1.9,0,3.2,0.3,4,0.9c0.8,0.6,1.2,1.7,1.2,3.3c0,1.6-0.4,2.7-1.2,3.3c-0.8,0.6-2.1,0.9-4,0.9
		h-23c-1.5,0-2.7-0.3-3.5-0.9c-0.8-0.6-1.3-1.7-1.3-3.2V56.2c0-1.5,0.4-2.6,1.2-3.2c0.8-0.6,2-0.9,3.6-0.9h23.1
		c1.4,0,2.5,0.3,3.2,0.9c0.7,0.6,1.1,1.7,1.2,3.2c0,1.5-0.3,2.6-1.1,3.2c-0.8,0.6-1.9,0.9-3.4,0.9H32.1v12.6h17.3
		c1.6,0,2.7,0.3,3.4,1c0.7,0.7,1,1.8,1,3.2c0,1.5-0.3,2.6-1,3.2c-0.7,0.6-1.8,0.9-3.4,0.9H32.1V95.8z"/>
	<path class="st5" d="M92.5,54c0.9-1.3,2-2.2,3.1-2.6c1.1-0.4,2.3-0.2,3.6,0.6c1.3,0.8,2,1.7,2.2,2.7c0.1,1-0.1,2-0.8,3L87.2,76.4
		l15.9,22.4c0.5,0.7,0.7,1.5,0.5,2.4c-0.2,0.9-0.9,1.8-2.2,2.6c-1.4,0.9-2.6,1.2-3.5,0.9s-1.8-1-2.5-2L81.8,84l-13.5,18.9
		c-1.5,2.2-3.5,2.6-6,1c-1-0.6-1.6-1.5-1.9-2.6c-0.3-1.1,0-2.2,0.9-3.4l15.1-21.3L63.3,58.1c-0.5-0.8-0.7-1.8-0.4-2.9
		c0.3-1.1,0.9-2,1.8-2.6c1.3-0.9,2.4-1.3,3.3-1.2c0.9,0.1,1.8,0.7,2.6,1.8L81.9,69L92.5,54z"/>
	<path class="st5" d="M118.8,100.1c0,1.6-0.4,2.8-1.2,3.6c-0.8,0.8-2,1.2-3.8,1.2c-1.7,0-3-0.4-3.7-1.2c-0.7-0.8-1.1-2-1.1-3.5v-44
		c0-3.2,1.6-4.8,4.8-4.8c1.6,0,2.8,0.3,3.7,1c0.8,0.7,1.3,1.9,1.3,3.7V100.1z"/>
	<path class="st5" d="M152.6,73.1c1.4,0,2.6,0.3,3.4,1c0.7,0.7,1,1.8,1,3.2c0,1.5-0.3,2.6-1,3.2c-0.7,0.6-1.8,0.9-3.4,0.9h-15.8
		v20.4c0,0.7-0.4,1.4-1.2,2.1c-0.8,0.7-2,1-3.8,1c-1.7,0-3-0.3-3.7-1c-0.7-0.7-1.1-1.4-1.1-2.1V56.2c0-1.5,0.4-2.6,1.2-3.2
		c0.8-0.6,2-0.9,3.6-0.9h23.1c1.4,0,2.5,0.3,3.2,0.9c0.7,0.6,1.1,1.7,1.2,3.2c0,1.5-0.3,2.6-1.1,3.2c-0.8,0.6-1.9,0.9-3.4,0.9h-18.1
		v12.6H152.6z"/>
</g>
</svg>
